# xmcd
#
# Track frame offsets: 
#        150
#        11391
#        32507
#        46355
#        64788
#        79795
#        95359
#        109747
#        125351
#        143793
#        161788
#
# Disc length: 2340 seconds
#
# Revision: 0
# Processed by: cddbd v1.5.2PL0 Copyright (c) Steve Scherf et al.
# Submitted via: ExactAudioCopy v0.95b4
#
DISCID=8609220b
DTITLE=Pete Berwick - Ain't No Train Outta Nashville
DYEAR=2007
DGENRE=Country
TTITLE0=Rebels And Cadillacs
TTITLE1=Six Pack Town
TTITLE2=When I'm Gone
TTITLE3=The Years We Left Behind
TTITLE4=Devil Knows His Name
TTITLE5=I Ain't Him
TTITLE6=Ain't No Train Outta Nashville
TTITLE7=Only Bleeding
TTITLE8=Can't Hide The Tears
TTITLE9=Rusted Ball And Chain
TTITLE10=This Used To Be A Town
EXTD=
EXTT0=
EXTT1=
EXTT2=
EXTT3=
EXTT4=
EXTT5=
EXTT6=
EXTT7=
EXTT8=
EXTT9=
EXTT10=
PLAYORDER=
